<svg xmlns="http://www.w3.org/2000/svg">
	<symbol id="like">
		<g clip-path="url(#clip0_1_111)">
		<path fill-rule="evenodd" clip-rule="evenodd" d="M1.00025 10.063L3.75025 8.688L5.06225 4.219C5.06225 4.219 4.84425 2.219 4.71925 1C7.03125 1 7.15625 3.969 7.15625 3.969L7.40625 6.063C7.40625 6.063 9.77025 5.421 10.6253 5.251C11.8753 5.001 12.6883 5.688 12.3753 7C13.0313 7.407 13.0003 8.563 12.4693 9.063C12.9383 9.594 12.8443 10.844 12.1883 11.313C12.3503 12.431 11.9693 12.688 11.6883 12.938C11.4063 13.188 9.93825 14.001 8.28125 14.001C6.62525 14.001 5.18725 13.657 5.18725 13.657L3.03125 15C3.03125 15 2.21925 14.469 1.59425 12.876C0.969252 11.282 1.00025 10.063 1.00025 10.063Z" stroke="currentColor" stroke-linejoin="round"/>
		</g>
		<defs>
		<clipPath id="clip0_1_111">
		<rect width="14" height="16" fill="white"/>
		</clipPath>
		</defs>
	</symbol>
	<symbol id="flag">
		<path d="M7.27273 0.454545H0.909091V0H0V10H0.909091V5.90909H7.27273L5.90909 3.18182L7.27273 0.454545Z" fill="currentColor"/>
	</symbol>
	<symbol fill="none" xmlns="http://www.w3.org/2000/svg" viewBox="0 0 14 12" id="star">
    <path d="M6.875 9.97771L3.28474 11.9593C3.04669 12.0907 2.76334 11.8842 2.81691 11.6184L3.61775 7.6442L0.604135 4.89617C0.402399 4.71222 0.510912 4.37718 0.782514 4.34542L4.86191 3.86849L6.58556 0.183765C6.70017 -0.0612557 7.04982 -0.0612549 7.16444 0.183766L8.88809 3.86849L12.9675 4.34542C13.2391 4.37718 13.3476 4.71222 13.1459 4.89617L10.1322 7.6442L10.9331 11.6184C10.9867 11.8842 10.7033 12.0907 10.4653 11.9593L6.875 9.97771Z" fill="currentColor"></path>
    <defs>
      <linearGradient id="paint0_linear_1_376" x1="0.5" y1="12" x2="13.25" y2="12" gradientUnits="userSpaceOnUse">
        <stop stop-color="#F5A623"></stop>
        <stop offset="1" stop-color="#F5C723"></stop>
      </linearGradient>
    </defs>
  </symbol>
	<symbol id="submit">
		<path d="M0.000504511 11.7943L5.95749 14.5139L17.6432 4.88889L8.32519 15.6597L9.77636 22L11.5327 17.6455L18.3306 20.7778C18.2084 20.9007 22.1194 0.122905 21.9972 0C21.9972 0 -0.121699 11.7943 0.000504511 11.7943Z" fill="#FF4641"/>
	</symbol>
</svg>
